inDegrees=no
num_controls=7
num_derivatives=13
num_iterations=200
num_multipliers=7
num_parameters=0
num_slacks=7
num_states=26
objective=5.972896
objective_accelerations=0.793589
objective_balance=0.007142
objective_effort=0.532598
objective_height=4.524325
objective_ligament=0.115242
solver_duration=1666.525891
status=Solve_Succeeded
success=true
DataType=double
version=3
OpenSimVersion=4.4-2022-07-23-0e9fedc
endheader
time	/jointset/ground_pelvis/pelvis_tilt/value	/jointset/ground_pelvis/pelvis_tx/value	/jointset/ground_pelvis/pelvis_ty/value	/jointset/hip_r/hip_flexion_r/value	/jointset/hip_r/hip_adduction_r/value	/jointset/hip_r/hip_rotation_r/value	/jointset/back/lumbar_extension/value	/jointset/patellofemoral_r/patellar_flexion_r/value	/jointset/knee_r/knee_flexion_r/value	/jointset/knee_r/knee_adduction_r/value	/jointset/knee_r/knee_rotation_r/value	/jointset/ankle_r/ankle_angle_r/value	/jointset/subtalar_r/subtalar_angle_r/value	/jointset/ground_pelvis/pelvis_tilt/speed	/jointset/ground_pelvis/pelvis_tx/speed	/jointset/ground_pelvis/pelvis_ty/speed	/jointset/hip_r/hip_flexion_r/speed	/jointset/hip_r/hip_adduction_r/speed	/jointset/hip_r/hip_rotation_r/speed	/jointset/back/lumbar_extension/speed	/jointset/patellofemoral_r/patellar_flexion_r/speed	/jointset/knee_r/knee_flexion_r/speed	/jointset/knee_r/knee_adduction_r/speed	/jointset/knee_r/knee_rotation_r/speed	/jointset/ankle_r/ankle_angle_r/speed	/jointset/subtalar_r/subtalar_angle_r/speed	/forceset/tau_hip_flexion_r	/forceset/tau_hip_adduction_r	/forceset/tau_hip_rotation_r	/forceset/tau_knee_flexion_r	/forceset/tau_ankle_angle_r	/forceset/tau_subtalar_angle_r	/forceset/tau_lumbar_extension	lambda_cid13_p0	lambda_cid14_p0	lambda_cid14_p1	lambda_cid14_p2	lambda_cid14_p3	lambda_cid14_p4	lambda_cid14_p5	/jointset/ground_pelvis/pelvis_tilt/accel	/jointset/ground_pelvis/pelvis_tx/accel	/jointset/ground_pelvis/pelvis_ty/accel	/jointset/hip_r/hip_flexion_r/accel	/jointset/hip_r/hip_adduction_r/accel	/jointset/hip_r/hip_rotation_r/accel	/jointset/back/lumbar_extension/accel	/jointset/patellofemoral_r/patellar_flexion_r/accel	/jointset/knee_r/knee_flexion_r/accel	/jointset/knee_r/knee_adduction_r/accel	/jointset/knee_r/knee_rotation_r/accel	/jointset/ankle_r/ankle_angle_r/accel	/jointset/subtalar_r/subtalar_angle_r/accel	gamma_cid13_p0	gamma_cid14_p0	gamma_cid14_p1	gamma_cid14_p2	gamma_cid14_p3	gamma_cid14_p4	gamma_cid14_p5
1	-0.2578211857600047	-0.03171814554136212	0.5604933645522551	1.644864395301646	-0.2435958141660121	-0.03672230147651195	-0.7853911030710683	1.701042705127175	1.701042705127183	-0.1745328784095392	0.1745323160098219	0.4360773213994857	0.1644740361306735	0.07128549067002173	0.005898254026749186	0.01388663578051589	-0.099740009634393	-0.002066507822626539	-0.004029190936856942	-8.040683247795062e-05	-0.007840181274613622	-0.00784018127461427	-0.000510556405930059	-0.0004184716071431869	0.02136225650201809	0.006795563417995218	-0.3598332890935261	0.005313203812197943	0.00291444681051645	-0.5112422419361435	0.001858791157644337	0.008211531839633027	0.3757050902427867	-0.03881532045098229	-52.44330320143892	-8.660347780105768	5.279808249397126	13.51600254309444	-791.7763103068419	80.65702625297671	1.046764005251939	-0.007931353896048595	2.233371406426532	-6.198495862545921	0.2344815107844135	-1.472978851403771	-0.02245878239574812	-5.867993038136994	-5.867993038137002	0.05464968090571458	-0.08407188480441362	-0.8583353646148942	0.05332313047647638	1.808490254743569e-09	2.972916370538784e-09	-3.240413734790064e-09	1.562309715167121e-08	-4.034701312183353e-09	-4.675030449039621e-09	4.145188928786889e-09
1.01	-0.2570565053674431	-0.03165955239049809	0.5607438121434078	1.643557707122845	-0.2436044688424026	-0.0368333012182365	-0.7853923759785395	1.700671132936931	1.700671132936929	-0.1745326422250408	0.1745233357705475	0.4362480029692047	0.1645451118727891	0.08164966466395381	0.005823734456257768	0.03620328523613684	-0.1615962414527834	0.0003359435173514351	-0.0180915431562805	-0.0001657626784932223	-0.06648059856095449	-0.06648059856095528	0.0006418111579525192	-0.001368852778252838	0.01276189179629339	0.007411988296587338	-0.3593887215477635	0.005259986023773248	0.002990413295373494	-0.5116110085780106	0.002124415374646792	0.00825329338611942	0.3755289620996108	-0.03882221366262625	-52.35371846769626	-8.623484822556602	5.27045874011829	13.44670204153774	-791.7704572579748	80.78674959325745	1.031106019327842	-0.006709322624582979	2.23087007326938	-6.178978891348656	0.2431858967006029	-1.360981711025238	-0.0003121875014112498	-5.863017729000182	-5.863017729000158	0.1581334604956661	-0.09920816624937469	-0.8627117380568038	0.06466678541225142	1.934066425728675e-09	3.472495467067362e-09	1.184707450509224e-08	1.915159029652921e-08	-4.052054734589646e-09	-1.024252822803687e-08	1.728367669195976e-08
1.02	-0.2561882108503674	-0.03160160384813838	0.5612174379007451	1.641632498215895	-0.243589087215173	-0.03708254814290657	-0.7853942500846973	1.6997129662428	1.699712966242794	-0.1745183617318904	0.1745051143328207	0.4363323129985824	0.1646221247874629	0.09200831557244291	0.005769332325885251	0.05852226901735952	-0.223444155265691	0.002740752901165422	-0.03167862752825282	-0.000200646596379698	-0.1251590820519949	-0.1251590820519957	0.002298305376481732	-0.002266711268766007	0.00408853851034792	0.00798299792964526	-0.3589441540019733	0.005206768235378793	0.003066379780466136	-0.5119797752198622	0.002390039591650395	0.008295054932658093	0.37535283395646	-0.03884173862997989	-52.27096671903255	-8.587883690302531	5.261384753493323	13.39685030753583	-791.8573833341062	80.92165700452904	1.045659388163364	-0.003907865872297258	2.233838271546869	-6.196832261449335	0.2349531195515309	-1.377925281913605	-0.01236439676902429	-5.87560627907692	-5.875606279076908	0.1554750118350778	-0.07356734868489537	-0.8729330806591437	0.04424008136943382	8.567493245503634e-09	1.307755265082018e-08	5.085264232484449e-08	6.277078886039427e-08	-1.118046524881152e-08	-1.934228474923644e-08	1.176928520870651e-07
1.03	-0.255216252543704	-0.03154404623898652	0.5619142145440034	1.639088891595406	-0.2435496759665051	-0.03746496155369438	-0.7853962553228415	1.698167889944589	1.698167889944589	-0.1744846467071373	0.1744783332818783	0.436329434074512	0.1647045037782488	0.10239259264888	0.005750771244146539	0.08082847854558502	-0.2852722245197754	0.005142114226968558	-0.04470927900318328	-0.0001952219265874678	-0.1838571323280098	-0.1838571323280103	0.004542008930589806	-0.003074576588794732	-0.004685571513451353	0.008480652018802321	-0.3582615442324166	0.005133238740842142	0.00321153976521592	-0.5122075303446404	0.002903341611222012	0.00835280059234594	0.3750348342308173	-0.03886750192149603	-52.08605590634283	-8.524283404289248	5.24422647207208	13.22118618726704	-791.6820371448059	81.08079343999347	1.036202912874809	0.0004533118153144782	2.228319379182074	-6.175048930834715	0.2428340530196822	-1.251414280394526	0.007772766588791362	-5.867050706557076	-5.867050706557064	0.2734104925094459	-0.08212762903512347	-0.882748292954231	0.05073273454012361	1.5267326704552e-08	2.277552287627942e-08	9.010227218112617e-08	1.067990762550657e-07	-1.838143757009278e-08	-2.847808472698911e-08	2.18992544702905e-07
1.04	-0.2541401732571695	-0.03148641753242381	0.5628339146996881	1.635927153347685	-0.2434862298217947	-0.03797483731923977	-0.7853980509405083	1.69603580388268	1.69603580388269	-0.1744255761537853	0.1744439272766565	0.4362381914339538	0.1647915002422964	0.1128325115449377	0.005783551808056476	0.1031069715026845	-0.3470704807117373	0.007547732109760162	-0.05717109848258538	-0.0001587225473752313	-0.2425610347917529	-0.2425610347917535	0.007369411097127247	-0.003791702123753991	-0.01358361472580205	0.008906492582012432	-0.3575789344628933	0.005059709246336262	0.003356699750071519	-0.5124352854694094	0.003416643630809348	0.008410546252097108	0.3747168345051463	-0.03890541458364676	-51.90795115809938	-8.46144518685799	5.226698578939563	13.06437271609102	-791.6002897604152	81.2486503615787	1.056787752087443	0.006360463257476129	2.228294957321676	-6.190869649024878	0.2358044309491902	-1.264158882807986	-0.006149454883117935	-5.876776716622538	-5.876776716622593	0.2722147343209214	-0.05541939167094838	-0.8977197183693387	0.02987737618002609	2.343663543334986e-08	3.454121995273042e-08	1.343157510185441e-07	1.609946053751687e-07	-2.682810141022519e-08	-3.736490226332349e-08	3.397220671047658e-07
1.05	-0.2529596666991548	-0.03142806032032455	0.5639761025088175	1.63214806478813	-0.2433987634421949	-0.03860641923797618	-0.7853980413884458	1.693316986592523	1.693316986592532	-0.174335294129313	0.1744029200804374	0.4360574648844965	0.1648823402497145	0.1232521981105405	0.005910947615561362	0.125310223555993	-0.4086942571644102	0.009943582125330431	-0.06905626166622368	0.0002952588002601458	-0.3011706635671457	-0.3011706635671448	0.01076962474645504	-0.004391681211221314	-0.0225692420102165	0.009250789057069985	-0.3574545049809899	0.005018819931624889	0.003544350339485646	-0.5120682802926115	0.003650914314106699	0.008503696213206681	0.3750448755969106	-0.03894053307235782	-51.80620954036119	-8.387579016630765	5.197107033226048	12.73685647436129	-791.5154583380144	81.35597437165609	1.032077198047936	0.01938054174904544	2.213275975796942	-6.14017762841859	0.2412078957255838	-1.137329717176135	0.09136578179590206	-5.848298420413351	-5.848298420413091	0.3863089336554877	-0.05951744668961791	-0.900115347527469	0.03515155302796431	3.16518652643274e-08	4.637153349327491e-08	1.786843501366225e-07	2.155078607991914e-07	-3.53136931103217e-08	-4.624393909836356e-08	4.610587716874396e-07
1.06	-0.2516754596576288	-0.03136773886969953	0.5653397099677723	1.627754329267035	-0.2432873920406676	-0.03935417972474869	-0.7853894532512686	1.69001302452213	1.690013024522141	-0.1742085331176599	0.1743564670374653	0.4357866558393797	0.1649763123758552	0.1335726082461808	0.006176399513209252	0.1473909014677596	-0.4699998730182926	0.01232873649547913	-0.0804068120912366	0.001556994236223941	-0.3595899908391651	-0.3595899908391624	0.01466520853245198	-0.00488087147488841	-0.03160011385662671	0.009532916326502446	-0.3573300754991399	0.004977930616932673	0.003732000928899882	-0.5117012751158135	0.003885184997418972	0.008596846174359457	0.3753729166886254	-0.03898701639540617	-51.71128186182774	-8.313915322549066	5.166415912697085	12.4269056767887	-791.5261399211142	81.47588401478028	1.036932466094939	0.03397168128612696	2.203780129013316	-6.127237529266808	0.233665301864852	-1.157236331082929	0.1554013627804761	-5.838716415947837	-5.838716415947832	0.3712887616547472	-0.03326162691087376	-0.9067686307683807	0.01744353505501386	4.055168670452555e-08	5.735114581885346e-08	2.215190644037114e-07	2.720927860799139e-07	-4.046685383726126e-08	-5.604215016104673e-08	5.840618591044094e-07
1.07	-0.2502886251642842	-0.03130396973075879	0.5669234589595101	1.622749254845072	-0.2431522605141804	-0.04021270970462213	-0.7853635362068487	1.686125880275921	1.686125880275929	-0.1740402524990787	0.1743057620037278	0.4354253189682935	0.1650727220702914	0.1437683427640287	0.006610880152552297	0.169333322264175	-0.5309493033544814	0.01469514366653892	-0.09121295866958867	0.003830154306117094	-0.417802131618232	-0.4178021316182303	0.01906900385032457	-0.005241646533473913	-0.0406725688106999	0.009738327327574035	-0.3574907349827814	0.004963950087464608	0.00398759609439469	-0.5110793511053223	0.004090523477074787	0.008697801796269257	0.3760797881270646	-0.0390357355794116	-51.62230345088075	-8.234785841707231	5.13129285533473	11.97686044919914	-791.5974153696957	81.5768197784322	1.007014902113011	0.05319487810930967	2.185623545522623	-6.068927206513358	0.2378051908793716	-1.029349466530506	0.2938342768667545	-5.80696391511724	-5.806963915117309	0.4866204951481714	-0.03461879836790529	-0.9082789362487476	0.02056626062562061	4.948792259202269e-08	6.828550807980616e-08	2.642721890510668e-07	3.287879065657799e-07	-4.544275759754351e-08	-6.588925346988113e-08	7.071535839061823e-07
1.08	-0.2488006091342652	-0.031234854060854	0.5687258622573256	1.617136659835613	-0.2429935295627497	-0.04117671027934691	-0.7853087753721351	1.681657714420676	1.681657714420671	-0.1738255948116409	0.174252022548795	0.43497309854596	0.1651708811503372	0.1538089155812071	0.007245705706017062	0.1911217626832712	-0.5915039905194038	0.01704862148371076	-0.1015009310607061	0.007325752286925735	-0.4757943126465443	-0.4757943126465434	0.02394062229998167	-0.005487755713479912	-0.04977682410565123	0.009882793448341073	-0.3576513944663836	0.004949969558004013	0.00424319125983869	-0.5104574270948362	0.004295861956722576	0.008798757418190133	0.3767866595655391	-0.03909489516659923	-51.54020380964347	-8.155335436895875	5.094375977347473	11.54214569416544	-791.7675365188378	81.69416199139526	1.005900125960997	0.07404066411051657	2.172984053549494	-6.048288895013601	0.231079431087247	-1.053601493636015	0.3998889449634416	-5.794724465796863	-5.794724465796859	0.4648533880116539	-0.01032845119495381	-0.91312869894391	0.00525455899411557	5.863442834475744e-08	8.037461861348581e-08	3.044471470722193e-07	3.867618347370119e-07	-5.263236473255547e-08	-7.477454016760825e-08	8.282330050410474e-07
